<?xml version="1.0" standalone="no"?>
<!DOCTYPE svg PUBLIC "-//W3C//DTD SVG 20010904//EN"
 "http://www.w3.org/TR/2001/REC-SVG-20010904/DTD/svg10.dtd">
<svg version="1.0" xmlns="http://www.w3.org/2000/svg"
 width="200.000000pt" height="194.000000pt" viewBox="0 0 200.000000 194.000000"
 preserveAspectRatio="xMidYMid meet">
<metadata>
Created by potrace 1.12, written by Peter Selinger 2001-2015
</metadata>
<g transform="translate(0.000000,194.000000) scale(0.100000,-0.100000)"
fill="#000000" stroke="none">
<path d="M996 1908 c-8 -32 -7 -45 3 -30 5 8 11 -63 15 -170 3 -100 11 -320
17 -486 6 -167 9 -306 6 -308 -2 -2 -53 60 -112 138 -76 99 -109 150 -108 168
0 16 -1 18 -4 7 -5 -18 -23 -18 -406 -12 -258 5 -398 4 -392 -2 6 -6 89 -65
185 -133 96 -68 181 -127 188 -133 6 -5 12 -7 12 -4 0 3 -81 63 -180 133 -99
70 -179 129 -177 130 2 2 869 -268 982 -307 149 -51 346 -132 355 -147 9 -16
9 -16 10 -1 0 10 114 93 300 218 165 111 300 204 300 207 0 2 -24 3 -52 3 -47
-1 -49 -2 -18 -8 29 -5 -39 -28 -415 -138 -247 -72 -451 -130 -453 -129 -1 2
44 66 100 144 77 105 109 142 128 145 l25 4 -25 2 c-24 1 -31 18 -144 359 -65
196 -122 361 -126 365 -4 5 -10 -2 -14 -15z"/>
<path d="M981 1844 c0 -11 3 -14 6 -6 3 7 2 16 -1 19 -3 4 -6 -2 -5 -13z"/>
<path d="M961 1774 c0 -11 3 -14 6 -6 3 7 2 16 -1 19 -3 4 -6 -2 -5 -13z"/>
<path d="M951 1734 c0 -11 3 -14 6 -6 3 7 2 16 -1 19 -3 4 -6 -2 -5 -13z"/>
<path d="M931 1664 c0 -11 3 -14 6 -6 3 7 2 16 -1 19 -3 4 -6 -2 -5 -13z"/>
<path d="M921 1624 c0 -11 3 -14 6 -6 3 7 2 16 -1 19 -3 4 -6 -2 -5 -13z"/>
<path d="M901 1554 c0 -11 3 -14 6 -6 3 7 2 16 -1 19 -3 4 -6 -2 -5 -13z"/>
<path d="M891 1514 c0 -11 3 -14 6 -6 3 7 2 16 -1 19 -3 4 -6 -2 -5 -13z"/>
<path d="M871 1444 c0 -11 3 -14 6 -6 3 7 2 16 -1 19 -3 4 -6 -2 -5 -13z"/>
<path d="M861 1404 c0 -11 3 -14 6 -6 3 7 2 16 -1 19 -3 4 -6 -2 -5 -13z"/>
<path d="M841 1334 c0 -11 3 -14 6 -6 3 7 2 16 -1 19 -3 4 -6 -2 -5 -13z"/>
<path d="M831 1294 c0 -11 3 -14 6 -6 3 7 2 16 -1 19 -3 4 -6 -2 -5 -13z"/>
<path d="M1498 1183 c39 -2 105 -2 145 0 39 1 7 3 -73 3 -80 0 -112 -2 -72 -3z"/>
<path d="M1728 1183 c6 -2 18 -2 25 0 6 3 1 5 -13 5 -14 0 -19 -2 -12 -5z"/>
<path d="M1848 1173 c7 -3 16 -2 19 1 4 3 -2 6 -13 5 -11 0 -14 -3 -6 -6z"/>
<path d="M410 937 c0 -3 46 -38 103 -78 56 -40 108 -77 115 -82 6 -5 12 -7 12
-4 0 3 -46 38 -102 78 -57 40 -109 77 -115 82 -7 5 -13 7 -13 4z"/>
<path d="M831 832 c-155 -51 -175 -60 -182 -82 -4 -14 -66 -184 -138 -379 -72
-195 -130 -356 -127 -358 2 -3 146 102 320 232 174 131 321 235 328 232 7 -3
150 -104 318 -225 167 -122 306 -219 308 -218 2 2 -4 19 -12 37 -11 23 -14 25
-10 9 8 -30 5 -26 -336 450 l-255 355 -6 -90 c-4 -49 -7 -136 -8 -192 l-1
-103 -302 -226 c-167 -125 -309 -232 -317 -238 -12 -9 -13 -8 -6 4 5 8 147
200 317 427 169 227 308 415 308 418 0 10 -28 3 -199 -53z"/>
<path d="M1400 695 c0 -5 5 -17 10 -25 5 -8 10 -10 10 -5 0 6 -5 17 -10 25 -5
8 -10 11 -10 5z"/>
<path d="M1426 630 c3 -14 11 -32 16 -40 6 -10 7 -7 2 10 -3 14 -11 32 -16 40
-6 10 -7 7 -2 -10z"/>
<path d="M1450 565 c0 -5 5 -17 10 -25 5 -8 10 -10 10 -5 0 6 -5 17 -10 25 -5
8 -10 11 -10 5z"/>
<path d="M1476 500 c3 -14 11 -32 16 -40 6 -10 7 -7 2 10 -3 14 -11 32 -16 40
-6 10 -7 7 -2 -10z"/>
<path d="M1500 435 c0 -5 5 -17 10 -25 5 -8 10 -10 10 -5 0 6 -5 17 -10 25 -5
8 -10 11 -10 5z"/>
<path d="M1526 370 c3 -14 11 -32 16 -40 6 -10 7 -7 2 10 -3 14 -11 32 -16 40
-6 10 -7 7 -2 -10z"/>
<path d="M1550 305 c0 -5 5 -17 10 -25 5 -8 10 -10 10 -5 0 6 -5 17 -10 25 -5
8 -10 11 -10 5z"/>
<path d="M1580 225 c0 -5 5 -17 10 -25 5 -8 10 -10 10 -5 0 6 -5 17 -10 25 -5
8 -10 11 -10 5z"/>
<path d="M1606 160 c3 -14 11 -32 16 -40 6 -10 7 -7 2 10 -3 14 -11 32 -16 40
-6 10 -7 7 -2 -10z"/>
</g>
</svg>
